<svg xmlns="http://www.w3.org/2000/svg" viewBox="0 0 1600 900" role="img" aria-labelledby="title desc">
  <title id="title">Friendly colorful dream collage</title>
  <desc id="desc">A bright non-scary dream illustration with clouds, pillows, a red door, stars, a tiny elevator, and a phone with comments.</desc>
  <defs>
    <linearGradient id="sky" x1="0" y1="0" x2="1" y2="1">
      <stop offset="0" stop-color="#7ed6ff"/>
      <stop offset=".45" stop-color="#dff3ec"/>
      <stop offset="1" stop-color="#fff2b8"/>
    </linearGradient>
    <linearGradient id="coral" x1="0" y1="0" x2="1" y2="1">
      <stop offset="0" stop-color="#ff9a82"/>
      <stop offset="1" stop-color="#ff5f7b"/>
    </linearGradient>
    <linearGradient id="teal" x1="0" y1="0" x2="1" y2="1">
      <stop offset="0" stop-color="#42c7b7"/>
      <stop offset="1" stop-color="#126c63"/>
    </linearGradient>
    <filter id="shadow" x="-20%" y="-20%" width="140%" height="140%">
      <feDropShadow dx="0" dy="18" stdDeviation="18" flood-color="#17211f" flood-opacity=".18"/>
    </filter>
  </defs>
  <rect width="1600" height="900" fill="url(#sky)"/>
  <circle cx="1360" cy="155" r="150" fill="#ffbf3f" opacity=".85"/>
  <circle cx="168" cy="740" r="150" fill="#ff6f61" opacity=".18"/>
  <circle cx="1435" cy="700" r="210" fill="#126c63" opacity=".14"/>
  <g fill="#fff" opacity=".95">
    <ellipse cx="255" cy="190" rx="136" ry="56"/>
    <ellipse cx="360" cy="174" rx="95" ry="44"/>
    <ellipse cx="490" cy="195" rx="150" ry="58"/>
    <ellipse cx="1030" cy="265" rx="160" ry="62"/>
    <ellipse cx="1160" cy="250" rx="100" ry="45"/>
  </g>
  <g fill="none" stroke="#126c63" stroke-linecap="round" stroke-width="20" opacity=".75">
    <path d="M360 178c42-52 122-26 115 40-5 48-52 60-87 83"/>
    <path d="M391 375h1"/>
    <path d="M1125 225c34-44 96-16 84 38-9 42-49 46-76 67"/>
    <path d="M1135 390h1"/>
  </g>
  <g filter="url(#shadow)">
    <rect x="120" y="550" width="360" height="115" rx="48" fill="#fff"/>
    <rect x="188" y="505" width="360" height="120" rx="50" fill="#ffbf3f"/>
    <rect x="250" y="595" width="390" height="125" rx="52" fill="#fff"/>
    <rect x="930" y="560" width="440" height="130" rx="55" fill="#fff"/>
    <rect x="1015" y="500" width="330" height="115" rx="48" fill="#ff8d7e"/>
  </g>
  <g filter="url(#shadow)">
    <rect x="675" y="245" width="250" height="365" rx="38" fill="#ffffff"/>
    <rect x="705" y="292" width="190" height="245" rx="24" fill="url(#teal)"/>
    <circle cx="800" cy="566" r="18" fill="#dff3ec"/>
    <rect x="735" y="330" width="130" height="22" rx="11" fill="#ffffff" opacity=".85"/>
    <rect x="735" y="378" width="100" height="22" rx="11" fill="#ffbf3f"/>
    <rect x="735" y="426" width="140" height="22" rx="11" fill="#ffffff" opacity=".75"/>
  </g>
  <g filter="url(#shadow)">
    <rect x="1125" y="325" width="185" height="275" rx="18" fill="#ff6f61"/>
    <circle cx="1280" cy="466" r="13" fill="#ffdf6a"/>
    <rect x="1155" y="610" width="160" height="38" rx="19" fill="#ffffff"/>
    <path d="M1188 629h95" stroke="#126c63" stroke-width="10" stroke-linecap="round"/>
  </g>
  <g filter="url(#shadow)">
    <rect x="300" y="280" width="168" height="220" rx="26" fill="#ffffff"/>
    <rect x="328" y="320" width="112" height="110" rx="14" fill="#5fb8ff"/>
    <path d="M350 456h68" stroke="#126c63" stroke-width="14" stroke-linecap="round"/>
    <path d="M360 350h48M360 386h70" stroke="#ffffff" stroke-width="12" stroke-linecap="round"/>
  </g>
  <g filter="url(#shadow)">
    <circle cx="795" cy="170" r="76" fill="#ffffff"/>
    <circle cx="770" cy="152" r="12" fill="#17211f"/>
    <circle cx="824" cy="152" r="12" fill="#17211f"/>
    <path d="M762 191c30 27 70 27 97 0" fill="none" stroke="#17211f" stroke-width="12" stroke-linecap="round"/>
    <path d="M720 250c-50 45-70 115-50 180M870 250c58 46 82 115 62 180" fill="none" stroke="#ffffff" stroke-width="42" stroke-linecap="round"/>
    <path d="M735 258c-38 40-51 96-39 150M856 258c44 40 59 96 45 150" fill="none" stroke="#ff6f61" stroke-width="16" stroke-linecap="round"/>
  </g>
  <g fill="#126c63" opacity=".85">
    <path d="M150 330l20 42 46 7-33 32 8 46-41-22-41 22 8-46-33-32 46-7z"/>
    <path d="M1390 360l18 38 42 6-30 30 7 42-37-20-38 20 7-42-30-30 42-6z"/>
    <path d="M550 110l12 26 29 4-21 20 5 29-25-14-26 14 5-29-21-20 29-4z"/>
  </g>
  <g fill="#ff6f61" opacity=".82">
    <circle cx="600" cy="710" r="18"/>
    <circle cx="1250" cy="160" r="16"/>
    <circle cx="1010" cy="760" r="20"/>
  </g>
</svg>
